# xmcd CD database file
#
# Track frame offsets:
#	182
#	38930
#	77955
#	108985
#	136947
#	164862
#	196712
#
# Disc length: 2869 seconds
#
# Revision: 0
# Processed by: cddbd v1.5.2PL0 Copyright (c) Steve Scherf et al.
# Submitted via: CDex 1.51
#
DISCID=5b0b3307
DTITLE=Benny Golson and Curtis Fuller - One more mem´ry
DYEAR=1900
DGENRE=Jazz
TTITLE0=One more mem´ry
TTITLE1=Out of the past
TTITLE2=Sweetness
TTITLE3=Five spot after dark
TTITLE4=Touch me lightly
TTITLE5=Sad to say
TTITLE6=Once again
EXTD=
EXTT0=
EXTT1=
EXTT2=
EXTT3=
EXTT4=
EXTT5=
EXTT6=
PLAYORDER=
